<svg width="29" height="18" viewBox="0 0 29 18" fill="none" xmlns="http://www.w3.org/2000/svg">
<path d="M7.976 17.192C5.288 17.192 3.296 16.496 2 15.104C0.72 13.696 0.08 11.512 0.08 8.552C0.08 5.688 0.752 3.552 2.096 2.144C3.44 0.72 5.44 0.0079999 8.096 0.0079999C8.624 0.0079999 9.184 0.0479999 9.776 0.128C10.368 0.208 10.928 0.328 11.456 0.487999C11.984 0.631999 12.408 0.808 12.728 1.016C13.064 1.208 13.232 1.432 13.232 1.688C13.232 1.912 13.144 2.208 12.968 2.576C12.792 2.928 12.584 3.248 12.344 3.536C12.104 3.808 11.88 3.944 11.672 3.944C11.576 3.944 11.384 3.88 11.096 3.752C10.824 3.624 10.432 3.496 9.92 3.368C9.424 3.24 8.792 3.176 8.024 3.176C7.08 3.176 6.296 3.376 5.672 3.776C5.064 4.176 4.608 4.776 4.304 5.576C4.016 6.376 3.872 7.376 3.872 8.576C3.872 9.472 3.952 10.264 4.112 10.952C4.288 11.64 4.544 12.216 4.88 12.68C5.232 13.128 5.664 13.472 6.176 13.712C6.688 13.936 7.288 14.048 7.976 14.048C8.488 14.048 8.952 14.016 9.368 13.952C9.8 13.888 10.312 13.784 10.904 13.64L9.848 15.272V10.832H7.736C7.256 10.832 7.016 10.432 7.016 9.632V8.864C7.016 8.064 7.256 7.664 7.736 7.664H12.608C13.248 7.664 13.568 7.984 13.568 8.624V15.296C13.568 15.712 13.36 16.048 12.944 16.304C12.528 16.544 12.016 16.728 11.408 16.856C10.8 16.984 10.184 17.072 9.56 17.12C8.936 17.168 8.408 17.192 7.976 17.192Z" fill="#B1E443"/>
<path d="M18.125 17.048C17.485 17.048 17.165 16.872 17.165 16.52V0.92C17.165 0.439999 17.405 0.199999 17.885 0.199999H22.757C23.269 0.199999 23.829 0.255999 24.437 0.368C25.061 0.479999 25.645 0.703999 26.189 1.04C26.749 1.36 27.205 1.832 27.557 2.456C27.925 3.08 28.109 3.896 28.109 4.904C28.109 5.784 27.973 6.52 27.701 7.112C27.429 7.704 27.085 8.184 26.669 8.552C26.253 8.904 25.805 9.176 25.325 9.368C24.861 9.56 24.421 9.688 24.005 9.752C23.589 9.816 23.253 9.848 22.997 9.848H19.277V16.52C19.277 16.872 18.957 17.048 18.317 17.048H18.125ZM19.277 8.024H23.021C23.261 8.024 23.541 7.984 23.861 7.904C24.197 7.824 24.517 7.672 24.821 7.448C25.141 7.224 25.405 6.912 25.613 6.512C25.821 6.096 25.925 5.56 25.925 4.904C25.925 4.104 25.749 3.504 25.397 3.104C25.061 2.688 24.645 2.408 24.149 2.264C23.653 2.104 23.165 2.024 22.685 2.024H19.277V8.024Z" fill="white"/>
</svg>
